<?xml version="1.0" encoding="UTF-8"?>
<!DOCTYPE svg PUBLIC "-//W3C//DTD SVG 1.1//EN" "http://www.w3.org/Graphics/SVG/1.1/DTD/svg11.dtd">
<svg xmlns="http://www.w3.org/2000/svg" version="1.1" width="1200px" height="1200px" style="shape-rendering:geometricPrecision; text-rendering:geometricPrecision; image-rendering:optimizeQuality; fill-rule:evenodd; clip-rule:evenodd" xmlns:xlink="http://www.w3.org/1999/xlink">
<g><path style="opacity:0.965" fill="#7899a0" d="M 932.5,435.5 C 952.5,435.5 972.5,435.5 992.5,435.5C 992.5,454.167 992.5,472.833 992.5,491.5C 1010.83,491.5 1029.17,491.5 1047.5,491.5C 1047.5,472.833 1047.5,454.167 1047.5,435.5C 1067.5,435.5 1087.5,435.5 1107.5,435.5C 1107.5,454.833 1107.5,474.167 1107.5,493.5C 1088.17,493.5 1068.83,493.5 1049.5,493.5C 1049.5,512.5 1049.5,531.5 1049.5,550.5C 1029.83,550.5 1010.17,550.5 990.5,550.5C 990.5,531.5 990.5,512.5 990.5,493.5C 971.833,493.5 953.167,493.5 934.5,493.5C 934.5,512.5 934.5,531.5 934.5,550.5C 914.833,550.5 895.167,550.5 875.5,550.5C 875.5,530.833 875.5,511.167 875.5,491.5C 894.5,491.5 913.5,491.5 932.5,491.5C 932.5,472.833 932.5,454.167 932.5,435.5 Z"/></g>
<g><path style="opacity:0.964" fill="#9fd4d5" d="M 267.5,555.5 C 297.195,551.386 314.028,564.053 318,593.5C 318.667,618.167 318.667,642.833 318,667.5C 314.387,676.389 307.887,679.556 298.5,677C 292.999,674.162 289.832,669.662 289,663.5C 288.174,642.927 288.341,622.427 289.5,602C 288.44,588.44 281.107,581.607 267.5,581.5C 256.156,581.577 247.989,586.577 243,596.5C 241.707,620.117 241.04,643.784 241,667.5C 237.347,676.41 230.847,679.576 221.5,677C 215.812,674.807 212.645,670.64 212,664.5C 211.333,633.167 211.333,601.833 212,570.5C 215.898,558.6 223.731,555.1 235.5,560C 239.382,563.264 241.549,567.43 242,572.5C 248.761,564.205 257.261,558.538 267.5,555.5 Z"/></g>
<g><path style="opacity:0.976" fill="#9fd5d6" d="M 530.5,555.5 C 550.504,552.365 565.504,559.365 575.5,576.5C 592.839,554.001 614.172,549.167 639.5,562C 648.877,572.269 653.71,584.435 654,598.5C 654.667,621.167 654.667,643.833 654,666.5C 650.621,675.608 644.121,679.108 634.5,677C 629.162,674.993 625.996,671.159 625,665.5C 624.961,641.117 624.294,616.784 623,592.5C 619.436,585.043 613.436,581.376 605,581.5C 592.856,581.655 584.523,587.321 580,598.5C 579.667,620.833 579.333,643.167 579,665.5C 576.116,675.362 569.616,679.195 559.5,677C 555.333,675.5 552.5,672.667 551,668.5C 550.941,643.798 550.274,619.131 549,594.5C 546.147,585.23 539.814,580.897 530,581.5C 518.18,581.35 510.18,586.683 506,597.5C 505.021,621.855 504.021,646.188 503,670.5C 497.227,677.972 490.06,679.472 481.5,675C 478.769,672.374 476.936,669.207 476,665.5C 475.333,633.833 475.333,602.167 476,570.5C 478.852,559.82 485.685,555.986 496.5,559C 502.181,561.686 505.015,566.186 505,572.5C 512.217,564.66 520.717,558.993 530.5,555.5 Z"/></g>
<g><path style="opacity:0.97" fill="#9fd4d5" d="M 735.5,555.5 C 750.918,552.639 764.085,556.639 775,567.5C 777.516,570.534 779.516,573.868 781,577.5C 794.326,558.269 812.492,551.436 835.5,557C 845.333,560.167 851.833,566.667 855,576.5C 856.954,582.026 858.287,587.693 859,593.5C 859.981,619.254 859.648,644.921 858,670.5C 849.333,679.833 840.667,679.833 832,670.5C 830.696,646.229 830.029,621.896 830,597.5C 828.173,586.508 821.673,581.175 810.5,581.5C 798.21,581.383 790.043,587.05 786,598.5C 785.667,620.5 785.333,642.5 785,664.5C 781.269,677.115 773.435,680.615 761.5,675C 758.533,672.9 756.7,670.066 756,666.5C 755.94,642.131 755.273,617.798 754,593.5C 750.779,585.13 744.612,581.13 735.5,581.5C 723.21,581.383 715.043,587.05 711,598.5C 710.021,622.538 709.021,646.538 708,670.5C 703.532,677.085 697.365,679.252 689.5,677C 685.183,674.685 682.35,671.185 681,666.5C 680.028,632.786 680.361,599.119 682,565.5C 686.826,558.856 693.326,556.689 701.5,559C 707.2,561.699 710.033,566.199 710,572.5C 716.774,564.223 725.274,558.557 735.5,555.5 Z"/></g>
<g><path style="opacity:0.97" fill="#9fd4d5" d="M 354.5,556.5 C 364.115,554.886 370.615,558.552 374,567.5C 374.333,589.833 374.667,612.167 375,634.5C 376.875,647.033 384.208,653.033 397,652.5C 407.765,653.122 415.099,648.456 419,638.5C 419.97,613.454 420.97,588.454 422,563.5C 429.947,554.619 438.28,554.286 447,562.5C 447.862,564.087 448.529,565.754 449,567.5C 449.92,592.529 449.587,617.529 448,642.5C 442.637,661.863 430.137,673.696 410.5,678C 399.789,678.844 389.122,678.511 378.5,677C 357.27,669.416 346.103,654.249 345,631.5C 344.333,610.5 344.333,589.5 345,568.5C 345.956,565.623 347.289,562.956 349,560.5C 351.167,559.512 353,558.179 354.5,556.5 Z"/></g>
<g><path style="opacity:0.949" fill="#9fd5d6" d="M 893.5,558.5 C 902.703,556.094 909.203,559.094 913,567.5C 913.667,601.167 913.667,634.833 913,668.5C 908.212,677.413 901.045,679.913 891.5,676C 888.131,673.635 885.964,670.468 885,666.5C 884.333,633.833 884.333,601.167 885,568.5C 886.698,564.043 889.531,560.71 893.5,558.5 Z"/></g>
<g><path style="opacity:0.99" fill="#697576" d="M 894.5,692.5 C 902.173,691.736 909.507,692.903 916.5,696C 920.852,701.107 919.852,704.607 913.5,706.5C 896.684,700.575 886.017,706.242 881.5,723.5C 884.458,739.308 893.791,745.641 909.5,742.5C 909.5,739.167 909.5,735.833 909.5,732.5C 906.15,732.665 902.817,732.498 899.5,732C 895.965,729.162 895.632,725.995 898.5,722.5C 905.783,721.368 913.117,721.201 920.5,722C 921.701,722.903 922.535,724.069 923,725.5C 923.781,732.704 923.614,739.871 922.5,747C 919.557,750.431 915.891,752.764 911.5,754C 896.775,757.756 884.608,753.923 875,742.5C 863.738,718.772 870.238,702.106 894.5,692.5 Z"/></g>
<g><path style="opacity:0.989" fill="#697576" d="M 697.5,693.5 C 701.894,692.575 705.228,693.908 707.5,697.5C 714.221,713.997 721.054,730.33 728,746.5C 728.242,754.244 724.908,756.244 718,752.5C 716.5,748.833 715,745.167 713.5,741.5C 705.521,740.335 697.521,740.168 689.5,741C 687.541,745.55 685.208,749.883 682.5,754C 679.166,755.212 676.666,754.379 675,751.5C 674.416,748.743 674.75,746.077 676,743.5C 683.402,726.933 690.568,710.266 697.5,693.5 Z M 700.5,713.5 C 703.538,718.569 706.205,723.903 708.5,729.5C 703.533,730.662 698.533,730.829 693.5,730C 696.557,724.786 698.89,719.286 700.5,713.5 Z"/></g>
<g><path style="opacity:0.983" fill="#6a7677" d="M 789.5,693.5 C 792.685,693.02 795.519,693.686 798,695.5C 798.667,714.167 798.667,732.833 798,751.5C 794.38,755.487 790.713,755.487 787,751.5C 786.333,733.167 786.333,714.833 787,696.5C 788.045,695.627 788.878,694.627 789.5,693.5 Z"/></g>
<g><path style="opacity:0.945" fill="#f22a0a" d="M 624.5,694.5 C 635.505,694.333 646.505,694.5 657.5,695C 668.628,700.703 672.128,709.536 668,721.5C 666.39,723.731 664.557,725.731 662.5,727.5C 666.584,732.377 668.751,738.043 669,744.5C 672.193,746.876 673.026,749.876 671.5,753.5C 659.731,754.562 654.397,749.062 655.5,737C 654.728,735.779 653.728,734.779 652.5,734C 646.621,732.59 640.621,732.09 634.5,732.5C 634.92,739.284 634.42,745.95 633,752.5C 630.263,753.61 627.429,753.777 624.5,753C 623.299,752.097 622.465,750.931 622,749.5C 621.333,732.833 621.333,716.167 622,699.5C 622.847,697.807 623.68,696.14 624.5,694.5 Z M 634.5,705.5 C 640.842,705.334 647.175,705.5 653.5,706C 656.925,710.408 657.425,715.241 655,720.5C 654.097,721.701 652.931,722.535 651.5,723C 645.843,723.499 640.176,723.666 634.5,723.5C 634.5,717.5 634.5,711.5 634.5,705.5 Z"/></g>
<g><path style="opacity:0.986" fill="#697576" d="M 754.5,693.5 C 763.357,692.289 771.524,693.955 779,698.5C 780.67,703.501 779.004,706.501 774,707.5C 752.34,700.992 742.34,708.992 744,731.5C 747.461,739.235 753.461,743.235 762,743.5C 765.963,742.942 769.796,741.942 773.5,740.5C 779.268,741.712 780.935,745.046 778.5,750.5C 776.176,751.662 773.842,752.829 771.5,754C 739.262,756.759 726.429,742.259 733,710.5C 737.721,701.6 744.887,695.933 754.5,693.5 Z"/></g>
<g><path style="opacity:0.983" fill="#697576" d="M 812.5,693.5 C 816.287,692.814 819.454,693.814 822,696.5C 831.345,708.539 840.678,720.539 850,732.5C 850.333,720.167 850.667,707.833 851,695.5C 853.553,693.271 856.386,692.938 859.5,694.5C 860.666,713.825 860.833,733.158 860,752.5C 856.057,755.366 852.39,755.032 849,751.5C 840,739.833 831,728.167 822,716.5C 821.667,727.833 821.333,739.167 821,750.5C 817.829,755.414 814.163,755.747 810,751.5C 809.333,733.167 809.333,714.833 810,696.5C 811.045,695.627 811.878,694.627 812.5,693.5 Z"/></g>
</svg>
